<svg width="125" height="51" viewBox="0 0 125 51" fill="none" xmlns="http://www.w3.org/2000/svg">
<path d="M10.112 39.616C8.70401 41.6213 7.91467 43.2213 7.74401 44.416C7.61601 45.6107 8.00001 46.4853 8.89601 47.04C9.83467 47.552 11.1573 47.8507 12.864 47.936L12.608 49.216C10.9867 49.1307 9.51467 49.088 8.19201 49.088C6.91201 49.0453 5.69601 49.024 4.54401 49.024C3.56267 49.024 2.73067 49.0453 2.048 49.088C1.36534 49.088 0.682672 49.1307 4.76837e-06 49.216L0.320005 47.936C1.00267 47.7653 1.68534 47.4667 2.36801 47.04C3.05067 46.5707 3.79734 45.9093 4.60801 45.056C5.37601 44.16 6.27201 42.9867 7.29601 41.536L34.304 3.584C34.688 3.62667 35.0933 3.648 35.52 3.648C35.9893 3.648 36.416 3.62667 36.8 3.584L39.36 43.84C39.488 45.376 39.872 46.4427 40.512 47.04C41.1947 47.5947 41.856 47.8933 42.496 47.936L42.24 49.216C41.216 49.1307 39.8933 49.088 38.272 49.088C36.6933 49.0453 35.1787 49.024 33.728 49.024C31.936 49.024 30.2293 49.0453 28.608 49.088C26.9867 49.088 25.7067 49.1307 24.768 49.216L25.024 47.936C27.072 47.8507 28.5227 47.488 29.376 46.848C30.2293 46.1653 30.6133 44.736 30.528 42.56L28.864 12.352L30.528 10.816L10.112 39.616ZM15.808 30.784H34.496L33.984 32.064H14.656L15.808 30.784ZM58.658 5.184C58.786 3.60534 59.426 2.34667 60.578 1.408C61.73 0.469334 63.074 0 64.61 0C66.018 0 67.0847 0.405333 67.81 1.216C68.578 1.984 68.898 2.98667 68.77 4.224C68.642 5.67467 68.002 6.89067 66.85 7.872C65.698 8.85334 64.354 9.344 62.818 9.344C61.41 9.344 60.322 8.96 59.554 8.192C58.8287 7.38133 58.53 6.37867 58.658 5.184ZM56.418 21.632C57.186 19.328 56.93 18.176 55.65 18.176C54.7967 18.176 54.0287 18.624 53.346 19.52C52.6633 20.3733 51.938 21.76 51.17 23.68L50.082 26.688H48.866L50.53 21.888C51.17 20.1813 51.938 18.8587 52.834 17.92C53.73 16.9387 54.7327 16.256 55.842 15.872C56.9513 15.488 58.0393 15.296 59.106 15.296C60.5993 15.296 61.73 15.5733 62.498 16.128C63.266 16.6827 63.778 17.408 64.034 18.304C64.29 19.2 64.354 20.1813 64.226 21.248C64.098 22.272 63.8633 23.2747 63.522 24.256L56.738 43.776C56.354 44.928 56.2473 45.8027 56.418 46.4C56.5887 46.9547 56.994 47.232 57.634 47.232C58.3167 47.232 58.9993 46.8693 59.682 46.144C60.4073 45.376 61.1753 43.904 61.986 41.728L63.074 38.848H64.29L62.69 43.52C62.05 45.2267 61.282 46.5707 60.386 47.552C59.49 48.4907 58.5087 49.152 57.442 49.536C56.3753 49.92 55.33 50.112 54.306 50.112C52.4287 50.112 51.0633 49.7067 50.21 48.896C49.3567 48.0427 48.93 46.8907 48.93 45.44C48.93 43.9467 49.2713 42.24 49.954 40.32L56.418 21.632ZM76.604 49.216H68.732L76.412 21.632C76.796 20.352 76.924 19.456 76.796 18.944C76.668 18.432 76.284 18.176 75.644 18.176C74.8333 18.176 74.0867 18.5813 73.404 19.392C72.7213 20.2027 72.0173 21.632 71.292 23.68L70.204 26.688H68.988L70.652 21.888C71.2493 20.1813 71.996 18.8587 72.892 17.92C73.788 16.9387 74.7693 16.256 75.836 15.872C76.9027 15.488 77.9907 15.296 79.1 15.296C80.4653 15.296 81.468 15.5733 82.108 16.128C82.7907 16.6827 83.2173 17.408 83.388 18.304C83.6013 19.2 83.644 20.1813 83.516 21.248C83.4307 22.272 83.26 23.2747 83.004 24.256L76.604 49.216ZM92.988 16.768C92.0493 16.768 91.0893 17.1093 90.108 17.792C89.1267 18.432 88.1027 19.4773 87.036 20.928C85.9693 22.3787 84.8813 24.2987 83.772 26.688C82.7053 29.0347 81.596 31.9147 80.444 35.328C79.292 38.6987 78.14 42.688 76.988 47.296L78.524 38.784C79.8467 34.304 81.084 30.5707 82.236 27.584C83.4307 24.5547 84.5827 22.144 85.692 20.352C86.844 18.5173 88.06 17.216 89.34 16.448C90.62 15.68 92.0067 15.296 93.5 15.296C95.036 15.296 96.2093 15.744 97.02 16.64C97.8733 17.536 98.3 18.6453 98.3 19.968C98.3 21.0347 98.044 22.0373 97.532 22.976C97.02 23.872 96.3373 24.5973 95.484 25.152C94.6733 25.664 93.7347 25.92 92.668 25.92C91.6013 25.92 90.748 25.6427 90.108 25.088C89.5107 24.5333 89.212 23.7227 89.212 22.656C89.212 21.7173 89.4253 20.864 89.852 20.096C90.2787 19.328 90.8333 18.688 91.516 18.176C92.1987 17.6213 92.9453 17.2373 93.756 17.024C93.6707 16.9387 93.564 16.8747 93.436 16.832C93.308 16.7893 93.1587 16.768 92.988 16.768ZM102.809 35.136C104.814 34.368 106.649 33.5787 108.313 32.768C110.02 31.9147 111.449 31.0187 112.601 30.08C114.18 28.672 115.46 27.0293 116.441 25.152C117.422 23.232 117.913 21.1413 117.913 18.88C117.913 17.8987 117.828 17.2587 117.657 16.96C117.486 16.6613 117.23 16.512 116.889 16.512C115.908 16.512 114.841 16.9813 113.689 17.92C112.537 18.8587 111.406 20.16 110.297 21.824C109.188 23.4453 108.164 25.28 107.225 27.328C106.329 29.376 105.604 31.5307 105.049 33.792C104.494 36.0533 104.217 38.2933 104.217 40.512C104.217 42.7733 104.644 44.3733 105.497 45.312C106.393 46.208 107.566 46.656 109.017 46.656C110.254 46.656 111.726 46.2507 113.433 45.44C115.14 44.6293 116.825 43.1573 118.489 41.024L119.513 41.536C118.66 42.944 117.529 44.3093 116.121 45.632C114.713 46.9547 113.092 48.0427 111.257 48.896C109.465 49.7067 107.481 50.112 105.305 50.112C103.513 50.112 101.892 49.7707 100.441 49.088C98.9903 48.4053 97.8597 47.4027 97.049 46.08C96.2383 44.7147 95.833 43.0507 95.833 41.088C95.833 38.9973 96.1957 36.7787 96.921 34.432C97.6463 32.0427 98.6703 29.7173 99.993 27.456C101.358 25.1947 102.958 23.1467 104.793 21.312C106.67 19.4773 108.74 18.0267 111.001 16.96C113.262 15.8507 115.694 15.296 118.297 15.296C120.004 15.296 121.433 15.7013 122.585 16.512C123.737 17.28 124.313 18.4747 124.313 20.096C124.313 21.76 123.844 23.3173 122.905 24.768C121.966 26.2187 120.686 27.5413 119.065 28.736C117.486 29.9307 115.737 30.9973 113.817 31.936C111.94 32.8747 110.041 33.6853 108.121 34.368C106.201 35.0507 104.409 35.6053 102.745 36.032L102.809 35.136Z" fill="#141414"/>
</svg>
