<svg width="24" height="24" viewBox="0 0 24 24" fill="none" xmlns="http://www.w3.org/2000/svg">
<g clip-path="url(#clip0_1_103)">
<path d="M10.9 24.354L15.45 11.5416H17.55L22.1 24.354H20L18.925 21.0975H14.075L13 24.354H10.9ZM3 21.1509L1.6 19.6561L6.65 14.2643C6.06667 13.6414 5.5375 12.9296 5.0625 12.1288C4.5875 11.3281 4.15 10.4205 3.75 9.40621H5.85C6.18333 10.1002 6.51667 10.7052 6.85 11.2213C7.18333 11.7374 7.58333 12.2534 8.05 12.7695C8.6 12.1822 9.17083 11.3592 9.7625 10.3004C10.3542 9.2416 10.8 8.23174 11.1 7.27081H0V5.1354H7V3H9V5.1354H16V7.27081H13.1C12.75 8.55205 12.225 9.86888 11.525 11.2213C10.825 12.5737 10.1333 13.6058 9.45 14.3176L11.85 16.9335L11.1 19.1223L8.05 15.7857L3 21.1509ZM14.7 19.2291H18.3L16.5 13.7838L14.7 19.2291Z" fill="url(#paint0_linear_1_103)"/>
</g>
<defs>
<linearGradient id="paint0_linear_1_103" x1="146.413" y1="3" x2="146.413" y2="24.354" gradientUnits="userSpaceOnUse">
<stop stop-color="#A523AC"/>
<stop offset="1" stop-color="#803545"/>
</linearGradient>
<clipPath id="clip0_1_103">
<rect width="24" height="24" fill="white"/>
</clipPath>
</defs>
</svg>
